<?xml version="1.0" encoding="iso-8859-1"?>
<!-- Generator: Adobe Illustrator 19.0.0, SVG Export Plug-In . SVG Version: 6.00 Build 0)  -->
<svg version="1.1" id="Layer_1" xmlns="http://www.w3.org/2000/svg" xmlns:xlink="http://www.w3.org/1999/xlink" x="0px" y="0px"
	 viewBox="0 0 512 512" style="enable-background:new 0 0 512 512;" xml:space="preserve">
<g>
	<g>
		<g>
			<path d="M320.951,218.925c-23.167-10.994-47.95-16.568-73.662-16.568c-5.523,0-10,4.478-10,10c0,5.522,4.478,9.999,10.001,9.999
				c22.723,0,44.621,4.925,65.087,14.637c1.384,0.657,2.843,0.968,4.28,0.968c3.742,0,7.33-2.109,9.041-5.715
				C328.066,227.257,325.941,221.293,320.951,218.925z"/>
			<path d="M185.015,214.081c-55.646,21.825-96.279,71.938-106.041,130.78c-0.904,5.449,2.78,10.598,8.229,11.502
				c0.555,0.092,1.105,0.137,1.649,0.137c4.803,0,9.041-3.472,9.853-8.365c8.615-51.935,44.486-96.167,93.613-115.435
				c5.142-2.017,7.675-7.819,5.658-12.961C195.959,214.597,190.156,212.066,185.015,214.081z"/>
			<path d="M502,376.872h-18.858c-2.019-57.41-25.63-111.176-67.033-152.15c-31.025-30.704-69.246-51.499-110.762-60.783
				c-0.297-26.964-22.313-48.811-49.346-48.811c-26.925,0-48.869,21.672-49.338,48.487c-41.975,9.116-80.529,30.045-111.628,61.144
				c-40.877,40.877-64.188,94.631-66.179,152.113H10c-5.523,0-10,4.478-10,10c0,5.522,4.477,10,10,10h492c5.523,0,10-4.478,10-10
				C512,381.35,507.523,376.872,502,376.872z M256,135.128c14.792,0,27.057,10.997,29.065,25.244
				c-9.836-1.282-19.812-1.948-29.886-1.948c-9.509,0-18.928,0.584-28.218,1.731C229.063,146.013,241.283,135.128,256,135.128z
				 M48.871,376.872c4.236-110.144,95.146-198.448,206.309-198.448c112.045,0,203.678,88.304,207.948,198.448H48.871z"/>
		</g>
	</g>
</g>
<g>
</g>
<g>
</g>
<g>
</g>
<g>
</g>
<g>
</g>
<g>
</g>
<g>
</g>
<g>
</g>
<g>
</g>
<g>
</g>
<g>
</g>
<g>
</g>
<g>
</g>
<g>
</g>
<g>
</g>
</svg>
