<?xml version="1.0" encoding="iso-8859-1"?>
<!-- Generator: Adobe Illustrator 19.0.0, SVG Export Plug-In . SVG Version: 6.00 Build 0)  -->
<svg version="1.1" id="Layer_1" xmlns="http://www.w3.org/2000/svg" xmlns:xlink="http://www.w3.org/1999/xlink" x="0px" y="0px"
	 viewBox="0 0 511.999 511.999" style="enable-background:new 0 0 511.999 511.999;" xml:space="preserve">
<g>
	<g>
		<path d="M474.566,154.729l-35.222-45.583c-1.732-2.242-4.406-3.554-7.239-3.554c-2.833,0-5.507,1.312-7.239,3.554l-0.539,0.698
			V97.886C424.327,43.912,380.416,0,326.441,0c-27.634,0-52.611,11.529-70.427,30.006C237.606,10.815,212.48,0,185.555,0
			C131.58,0,87.668,43.912,87.668,97.887v11.957l-0.539-0.699c-1.732-2.242-4.406-3.554-7.239-3.554
			c-2.833,0-5.507,1.312-7.239,3.554l-35.221,45.583c-1.238,1.601-1.909,3.57-1.909,5.594v342.529c0,5.053,4.096,9.148,9.148,9.148
			h422.659c5.052,0,9.148-4.095,9.148-9.148V160.322C476.474,158.299,475.804,156.331,474.566,154.729z M246.653,97.88
			c0.022-0.698,0.049-1.394,0.078-2.091c1.752-41.308,35.056-75.849,76.642-77.435c1.022-0.039,2.045-0.059,3.068-0.059
			c43.887,0,79.59,35.704,79.59,79.591v35.635l-9.148,11.839l-9.148-11.84V97.887c0-33.798-27.496-61.296-61.294-61.296
			s-61.294,27.497-61.294,61.296v35.634l-9.148,11.84l-9.148-11.839C246.85,121.686,246.271,109.711,246.653,97.88z M369.439,97.887
			v11.956l-0.539-0.698c-1.732-2.242-4.406-3.554-7.239-3.554c-2.833,0-5.507,1.312-7.239,3.554l-27.983,36.215l-27.983-36.215
			c-1.732-2.242-4.406-3.554-7.239-3.554c-2.833,0-5.507,1.312-7.239,3.554l-0.539,0.698V97.887c0-23.71,19.29-43,42.999-43
			C350.147,54.887,369.439,74.176,369.439,97.887z M185.555,18.296c22.688,0,43.813,9.455,58.916,26.156
			c-0.174,0.267-0.331,0.542-0.503,0.81c-3.413,5.311-6.345,10.981-8.666,16.854c-11.14-15.45-29.288-25.524-49.747-25.524
			c-33.797,0-61.295,27.497-61.295,61.296v35.634l-9.148,11.84l-9.148-11.84V97.887h-0.001
			C105.963,53.999,141.668,18.296,185.555,18.296z M176.407,493.704H53.815v-330.26l26.074-33.744l27.983,36.215
			c1.732,2.242,4.406,3.554,7.239,3.554c2.832,0,5.507-1.312,7.239-3.554l27.983-36.215l26.074,33.745V493.704z M157.572,109.145
			c-1.733-2.242-4.406-3.554-7.239-3.554c-2.833,0-5.507,1.312-7.239,3.554l-0.538,0.698V97.887c0-23.71,19.289-43,42.999-43
			c23.71,0,42.999,19.289,42.999,43c0,0.004,0,0.007,0,0.012v11.945l-0.539-0.699c-1.732-2.242-4.406-3.554-7.239-3.554
			c-2.832,0-5.507,1.312-7.239,3.554l-27.983,36.215L157.572,109.145z M458.18,493.704h-0.001H194.702V163.446l26.073-33.745
			l27.983,36.215c1.732,2.242,4.406,3.554,7.239,3.554c2.833,0,5.507-1.312,7.239-3.554l27.983-36.215l27.983,36.215
			c1.732,2.242,4.406,3.554,7.239,3.554c2.833,0,5.507-1.312,7.239-3.554l27.983-36.215l27.983,36.215
			c1.732,2.242,4.406,3.554,7.239,3.554c2.832,0,5.507-1.312,7.239-3.554l27.983-36.215l26.074,33.744V493.704z"/>
	</g>
</g>
<g>
</g>
<g>
</g>
<g>
</g>
<g>
</g>
<g>
</g>
<g>
</g>
<g>
</g>
<g>
</g>
<g>
</g>
<g>
</g>
<g>
</g>
<g>
</g>
<g>
</g>
<g>
</g>
<g>
</g>
</svg>
